<svg width="1200" height="720" viewBox="0 0 1200 720" fill="none" xmlns="http://www.w3.org/2000/svg" role="img" aria-labelledby="title desc">
  <title id="title">SourceRank leaderboard preview</title>
  <desc id="desc">A generated dashboard preview showing credibility scores, verdict bars, and pipeline health metrics.</desc>
  <rect width="1200" height="720" rx="28" fill="#0F1117"/>
  <rect x="32" y="32" width="1136" height="656" rx="20" fill="#141923" stroke="#273244"/>
  <text x="68" y="88" fill="#F8FAFC" font-family="Segoe UI, Arial, sans-serif" font-size="34" font-weight="700">SourceRank</text>
  <text x="68" y="120" fill="#94A3B8" font-family="Segoe UI, Arial, sans-serif" font-size="16">Journalist credibility scores from verified claims on X</text>

  <rect x="68" y="154" width="250" height="96" rx="12" fill="#182232" stroke="#2B384C"/>
  <text x="92" y="188" fill="#94A3B8" font-family="Segoe UI, Arial, sans-serif" font-size="14">Tracked journalists</text>
  <text x="92" y="228" fill="#E2E8F0" font-family="Segoe UI, Arial, sans-serif" font-size="38" font-weight="700">81</text>
  <text x="174" y="226" fill="#64748B" font-family="Segoe UI, Arial, sans-serif" font-size="14">active</text>

  <rect x="342" y="154" width="250" height="96" rx="12" fill="#182232" stroke="#2B384C"/>
  <text x="366" y="188" fill="#94A3B8" font-family="Segoe UI, Arial, sans-serif" font-size="14">Resolved claims</text>
  <text x="366" y="228" fill="#E2E8F0" font-family="Segoe UI, Arial, sans-serif" font-size="38" font-weight="700">436</text>
  <text x="468" y="226" fill="#22C55E" font-family="Segoe UI, Arial, sans-serif" font-size="14">confirmed</text>

  <rect x="616" y="154" width="250" height="96" rx="12" fill="#182232" stroke="#2B384C"/>
  <text x="640" y="188" fill="#94A3B8" font-family="Segoe UI, Arial, sans-serif" font-size="14">Coverage</text>
  <text x="640" y="228" fill="#E2E8F0" font-family="Segoe UI, Arial, sans-serif" font-size="38" font-weight="700">21%</text>
  <text x="726" y="226" fill="#64748B" font-family="Segoe UI, Arial, sans-serif" font-size="14">needs backfill</text>

  <rect x="890" y="154" width="210" height="96" rx="12" fill="#182232" stroke="#2B384C"/>
  <text x="914" y="188" fill="#94A3B8" font-family="Segoe UI, Arial, sans-serif" font-size="14">Snapshots</text>
  <text x="914" y="228" fill="#E2E8F0" font-family="Segoe UI, Arial, sans-serif" font-size="38" font-weight="700">1</text>
  <text x="952" y="226" fill="#64748B" font-family="Segoe UI, Arial, sans-serif" font-size="14">weekly</text>

  <rect x="68" y="288" width="760" height="316" rx="14" fill="#101722" stroke="#263246"/>
  <rect x="68" y="288" width="760" height="50" rx="14" fill="#182232"/>
  <text x="94" y="320" fill="#94A3B8" font-family="Segoe UI, Arial, sans-serif" font-size="13" font-weight="700">RANK</text>
  <text x="170" y="320" fill="#94A3B8" font-family="Segoe UI, Arial, sans-serif" font-size="13" font-weight="700">JOURNALIST</text>
  <text x="430" y="320" fill="#94A3B8" font-family="Segoe UI, Arial, sans-serif" font-size="13" font-weight="700">SCORE</text>
  <text x="540" y="320" fill="#94A3B8" font-family="Segoe UI, Arial, sans-serif" font-size="13" font-weight="700">CLAIMS</text>
  <text x="662" y="320" fill="#94A3B8" font-family="Segoe UI, Arial, sans-serif" font-size="13" font-weight="700">VERDICTS</text>

  <g font-family="Segoe UI, Arial, sans-serif" font-size="16">
    <text x="104" y="374" fill="#64748B" font-weight="700">1</text>
    <text x="170" y="374" fill="#E2E8F0" font-weight="600">@mkraju</text>
    <text x="430" y="374" fill="#22C55E" font-weight="700">88.5</text>
    <text x="552" y="374" fill="#CBD5E1">62</text>
    <rect x="662" y="362" width="118" height="10" rx="5" fill="#334155"/>
    <rect x="662" y="362" width="88" height="10" rx="5" fill="#22C55E"/>
    <rect x="750" y="362" width="10" height="10" fill="#EF4444"/>

    <text x="104" y="430" fill="#64748B" font-weight="700">2</text>
    <text x="170" y="430" fill="#E2E8F0" font-weight="600">@HamidMirPAK</text>
    <text x="430" y="430" fill="#22C55E" font-weight="700">82.0</text>
    <text x="552" y="430" fill="#CBD5E1">48</text>
    <rect x="662" y="418" width="118" height="10" rx="5" fill="#334155"/>
    <rect x="662" y="418" width="78" height="10" rx="5" fill="#22C55E"/>
    <rect x="740" y="418" width="18" height="10" fill="#3B82F6"/>

    <text x="104" y="486" fill="#64748B" font-weight="700">3</text>
    <text x="170" y="486" fill="#E2E8F0" font-weight="600">@KenDilanianNBC</text>
    <text x="430" y="486" fill="#FACC15" font-weight="700">74.5</text>
    <text x="552" y="486" fill="#CBD5E1">37</text>
    <rect x="662" y="474" width="118" height="10" rx="5" fill="#334155"/>
    <rect x="662" y="474" width="64" height="10" rx="5" fill="#22C55E"/>
    <rect x="726" y="474" width="28" height="10" fill="#3B82F6"/>

    <text x="104" y="542" fill="#64748B" font-weight="700">N/R</text>
    <text x="170" y="542" fill="#E2E8F0" font-weight="600">@example</text>
    <text x="430" y="542" fill="#64748B" font-weight="700">N/R</text>
    <text x="552" y="542" fill="#CBD5E1">4</text>
    <rect x="662" y="530" width="118" height="10" rx="5" fill="#334155"/>
    <rect x="662" y="530" width="24" height="10" rx="5" fill="#22C55E"/>
    <rect x="686" y="530" width="42" height="10" fill="#6B7280"/>
  </g>

  <rect x="864" y="288" width="236" height="316" rx="14" fill="#101722" stroke="#263246"/>
  <text x="892" y="328" fill="#F8FAFC" font-family="Segoe UI, Arial, sans-serif" font-size="18" font-weight="700">Pipeline health</text>
  <g font-family="Segoe UI, Arial, sans-serif" font-size="14">
    <circle cx="900" cy="370" r="7" fill="#22C55E"/>
    <text x="920" y="375" fill="#CBD5E1">RSS corpus indexed</text>
    <circle cx="900" cy="414" r="7" fill="#FACC15"/>
    <text x="920" y="419" fill="#CBD5E1">Tweet backfill pending</text>
    <circle cx="900" cy="458" r="7" fill="#22C55E"/>
    <text x="920" y="463" fill="#CBD5E1">Claims processed</text>
    <circle cx="900" cy="502" r="7" fill="#3B82F6"/>
    <text x="920" y="507" fill="#CBD5E1">Weekly snapshot ready</text>
  </g>
  <rect x="892" y="540" width="180" height="18" rx="9" fill="#273244"/>
  <rect x="892" y="540" width="82" height="18" rx="9" fill="#60A5FA"/>
  <text x="892" y="582" fill="#64748B" font-family="Segoe UI, Arial, sans-serif" font-size="13">Local-first, zero-cost scoring</text>
</svg>
